<?xml version="1.0" encoding="utf-8"?>
<!-- Generator: Adobe Illustrator 26.0.2, SVG Export Plug-In . SVG Version: 6.00 Build 0)  -->
<svg version="1.1" id="Pantallas" xmlns="http://www.w3.org/2000/svg" xmlns:xlink="http://www.w3.org/1999/xlink" x="0px" y="0px"
	 viewBox="0 0 106.4 52.2" style="enable-background:new 0 0 106.4 52.2;" xml:space="preserve">
<style type="text/css">
	.st0{fill:#FFFFFF;}
</style>
<g>
	<g>
		<g>
			<path class="st0" d="M6.1,29.7c-3.1,0-5.6,2.5-5.6,5.6s2.5,5.6,5.6,5.6s5.6-2.5,5.6-5.6S9.2,29.7,6.1,29.7z"/>
			<rect x="0.5" y="0.6" class="st0" width="84.5" height="9.4"/>
			<rect x="0.5" y="15.6" class="st0" width="84.5" height="9.4"/>
		</g>
		<g>
			<path class="st0" d="M43.1,42h-1.7v-1.9h1.7v-0.6c0-1.2,0.3-2.1,1-2.7c0.6-0.6,1.5-1,2.7-1c0.8,0,1.5,0.1,2.1,0.3l-0.4,1.8
				c-0.4-0.1-0.9-0.2-1.3-0.2c-0.5,0-0.9,0.1-1.2,0.4c-0.3,0.3-0.4,0.7-0.4,1.3v0.7h2.7V42h-2.7v9.3h-2.5C43.1,51.3,43.1,42,43.1,42
				z"/>
			<path class="st0" d="M52.3,40.1v7.1c0,0.9,0.2,1.6,0.5,1.9c0.3,0.3,0.8,0.5,1.4,0.5c0.3,0,0.7-0.1,1-0.2c0.4-0.1,0.7-0.3,0.9-0.6
				c0.3-0.2,0.5-0.5,0.7-0.9c0.2-0.3,0.3-0.7,0.3-1.2V40h2.5v11.2h-2.4v-1.6c-0.5,0.7-1.1,1.2-1.7,1.5c-0.6,0.3-1.3,0.5-1.9,0.5
				c-1.3,0-2.2-0.3-2.8-1s-0.9-1.7-0.9-3.1v-7.4H52.3z"/>
			<path class="st0" d="M64.6,40.1v1.6c0.5-0.7,1.1-1.2,1.7-1.5s1.3-0.5,2-0.5c2.5,0,3.8,1.4,3.8,4.1v7.4h-2.5v-7
				c0-0.9-0.2-1.5-0.5-1.9s-0.8-0.6-1.5-0.6c-0.4,0-0.8,0.1-1.2,0.2c-0.4,0.2-0.7,0.4-0.9,0.6c-0.3,0.3-0.5,0.6-0.6,0.9
				c-0.2,0.3-0.2,0.7-0.2,1.1v6.7h-2.4V40.1H64.6z"/>
			<path class="st0" d="M82.6,49.7c-0.5,0.6-1,1.1-1.6,1.4c-0.6,0.3-1.3,0.5-2,0.5c-0.8,0-1.5-0.1-2.1-0.4c-0.6-0.3-1.1-0.7-1.5-1.2
				s-0.7-1.2-0.9-1.9c-0.2-0.7-0.3-1.5-0.3-2.4c0-0.8,0.1-1.6,0.3-2.3c0.2-0.7,0.5-1.3,0.9-1.9c0.4-0.5,0.9-0.9,1.4-1.3
				c0.6-0.3,1.2-0.5,2-0.5c0.1,0,0.3,0,0.4,0s0.3,0,0.5,0c0.5,0.1,1,0.2,1.5,0.4s0.9,0.6,1.3,1.1v-5.4H85v15.4h-2.4V49.7z
				 M82.5,45.4c0-0.7-0.1-1.3-0.2-1.8c-0.2-0.5-0.4-0.9-0.6-1.1c-0.3-0.3-0.6-0.5-0.9-0.6c-0.4-0.1-0.7-0.2-1.1-0.2
				c-0.9,0-1.6,0.3-2.1,1s-0.7,1.6-0.7,3c0,0.7,0.1,1.3,0.2,1.8s0.3,0.9,0.6,1.2c0.3,0.3,0.5,0.5,0.9,0.7c0.3,0.1,0.7,0.2,1.1,0.2
				c0.9,0,1.6-0.3,2.2-0.9c0.6-0.6,0.8-1.5,0.8-2.7v-0.6H82.5z"/>
			<path class="st0" d="M94.5,49.8c-0.4,0.5-0.9,0.9-1.5,1.3c-0.6,0.3-1.3,0.5-2.2,0.5c-0.5,0-1-0.1-1.5-0.2
				c-0.5-0.1-0.9-0.3-1.2-0.6c-0.3-0.3-0.6-0.6-0.8-1c-0.2-0.4-0.3-0.9-0.3-1.5c0-0.8,0.2-1.4,0.5-1.9s0.8-0.9,1.3-1.1
				c0.6-0.3,1.2-0.5,1.9-0.6c0.7-0.1,1.4-0.2,2.1-0.2l1.7-0.1v-0.5c0-0.8-0.2-1.4-0.6-1.8c-0.4-0.3-0.9-0.5-1.6-0.5
				c-0.8,0-1.3,0.1-1.7,0.4c-0.4,0.3-0.6,0.6-0.7,1.1l-2.2-0.2c0.2-1.1,0.7-1.9,1.5-2.4s1.9-0.8,3.3-0.8c0.9,0,1.6,0.1,2.2,0.3
				s1,0.5,1.4,0.9c0.3,0.4,0.6,0.9,0.7,1.4c0.1,0.6,0.2,1.2,0.2,1.8v7h-2.4v-1.3H94.5z M92.8,46c-0.7,0-1.3,0.1-1.8,0.2
				c-0.5,0.1-0.8,0.3-1,0.4c-0.2,0.2-0.4,0.4-0.5,0.6c-0.1,0.2-0.1,0.5-0.1,0.8c0,0.5,0.2,0.9,0.5,1.1c0.3,0.3,0.8,0.4,1.4,0.4
				c1.1,0,1.9-0.3,2.4-0.8s0.8-1.3,0.8-2.2V46H92.8z"/>
			<path class="st0" d="M101.7,40.1v1.7c0.4-0.6,0.9-1,1.4-1.4c0.5-0.3,1.1-0.5,1.7-0.5c0.2,0,0.4,0,0.6,0s0.3,0,0.5,0.1l-0.3,2.2
				c-0.2,0-0.3-0.1-0.5-0.1s-0.4,0-0.6,0c-0.5,0-0.9,0.1-1.2,0.2c-0.3,0.2-0.6,0.3-0.9,0.6c-0.2,0.2-0.4,0.5-0.5,0.8
				s-0.2,0.6-0.2,0.9v6.6h-2.4V40.1H101.7z"/>
		</g>
	</g>
</g>
</svg>
