<?xml version="1.0" encoding="utf-8"?>
<!-- Generator: Adobe Illustrator 26.0.2, SVG Export Plug-In . SVG Version: 6.00 Build 0)  -->
<svg version="1.1" id="Pantallas" xmlns="http://www.w3.org/2000/svg" xmlns:xlink="http://www.w3.org/1999/xlink" x="0px" y="0px"
	 viewBox="0 0 106.4 52.2" style="enable-background:new 0 0 106.4 52.2;" xml:space="preserve">
<style type="text/css">
	.st0{clip-path:url(#SVGID_00000124163302208638424290000006049413513949786277_);}
	.st1{clip-path:url(#SVGID_00000067922136934882954770000013551452901743806597_);}
	.st2{fill:#231F20;}
	.st3{fill:#A39CEF;}
	.st4{fill:#FFFFFF;}
	.st5{clip-path:url(#SVGID_00000182522945613418611180000004329814602769608833_);}
	.st6{clip-path:url(#SVGID_00000050640901235381433270000008000165215785790604_);}
	.st7{clip-path:url(#SVGID_00000136390051332387511030000004260255860838919822_);}
	.st8{clip-path:url(#SVGID_00000113336496596361016200000004077863529672195491_);}
	.st9{fill:#C5B6F7;stroke:#231F20;stroke-width:1.5;stroke-miterlimit:10;}
	.st10{clip-path:url(#SVGID_00000008852572637691690490000005814877775899841937_);}
	.st11{clip-path:url(#SVGID_00000150781866296461071560000011644665460338152876_);}
	.st12{clip-path:url(#SVGID_00000080199028192636527080000014556809232495893667_);}
	.st13{clip-path:url(#SVGID_00000047761741372982325220000015159806115172047274_);}
	.st14{fill:none;stroke:#231F20;stroke-width:3;stroke-miterlimit:10;}
	.st15{clip-path:url(#SVGID_00000110437802430983328150000013186746009204922780_);}
	.st16{clip-path:url(#SVGID_00000017481991541816688420000015609556090789188743_);}
	.st17{clip-path:url(#SVGID_00000145761927535595374850000007124455382290473131_);}
	.st18{clip-path:url(#SVGID_00000022530829131449437500000003852957937175155352_);}
	.st19{clip-path:url(#SVGID_00000062907731924206204420000002567057587455195799_);}
	.st20{clip-path:url(#SVGID_00000048501410132665839620000003886482033606878372_);}
	.st21{fill:none;stroke:#231F20;stroke-width:1.5;stroke-miterlimit:10;}
	.st22{clip-path:url(#SVGID_00000062873961098757078730000003159205917309412777_);}
	.st23{clip-path:url(#SVGID_00000134237163655093250370000011056826147521518760_);}
	.st24{fill:#FFFFFF;stroke:#231F20;stroke-width:1.5;stroke-miterlimit:10;}
	.st25{clip-path:url(#SVGID_00000080917832719754981340000015107028280464019590_);}
	.st26{clip-path:url(#SVGID_00000160889748115014297810000014791294760049747604_);}
	.st27{fill:#D1D3D4;}
	.st28{clip-path:url(#SVGID_00000165953729396775512340000014229394637847999167_);}
	.st29{clip-path:url(#SVGID_00000096045131171344341010000008338625458570675858_);}
	.st30{fill:#7FDEE2;}
	.st31{clip-path:url(#SVGID_00000011018342848791018400000000691822862913534143_);}
	.st32{clip-path:url(#SVGID_00000040548343256458528390000001949964632991357829_);}
	.st33{clip-path:url(#SVGID_00000059282415690600590910000016099102632371473285_);}
	.st34{clip-path:url(#SVGID_00000181768040666165727020000017633651485882619305_);}
	.st35{fill:#DCD3FA;}
	.st36{fill:none;stroke:#000000;stroke-width:2;stroke-miterlimit:10;}
	.st37{clip-path:url(#SVGID_00000037673525061058524220000005865578940076077490_);}
	.st38{clip-path:url(#SVGID_00000139251845929054819700000010399053129767498905_);}
	.st39{fill:none;stroke:#000000;stroke-width:1.5;stroke-linecap:round;stroke-linejoin:round;stroke-miterlimit:10;}
	.st40{fill:#F8D3E6;stroke:#231F20;stroke-miterlimit:10;}
	.st41{fill:#C5B6F7;stroke:#231F20;stroke-miterlimit:10;}
	.st42{fill:none;stroke:#000000;stroke-miterlimit:10;}
	.st43{fill:none;stroke:#000000;stroke-linecap:round;stroke-linejoin:round;stroke-miterlimit:10;}
	.st44{opacity:0.5;fill:#231F20;}
	.st45{opacity:0.5;}
	.st46{clip-path:url(#SVGID_00000038388799849658695650000017412348670256522913_);}
	.st47{clip-path:url(#SVGID_00000049904896517383657470000007193394225723497918_);}
	.st48{fill:#EFB9E0;}
	.st49{clip-path:url(#SVGID_00000158022608569102574960000018373961397288908729_);}
	.st50{clip-path:url(#SVGID_00000070805346894585048880000009164691794728514213_);}
	.st51{fill:#EFB9E0;stroke:#231F20;stroke-width:1.5;stroke-miterlimit:10;}
	.st52{clip-path:url(#SVGID_00000093175339544964498110000015221717613409844111_);}
	.st53{clip-path:url(#SVGID_00000093175339544964498110000015221717613409844111_);fill:#FFFFFF;}
	.st54{clip-path:url(#SVGID_00000078044016784640595000000018199296480688014464_);}
	.st55{clip-path:url(#SVGID_00000101794190592249398290000011068934777512528769_);}
	.st56{fill:#414042;}
	.st57{fill:none;stroke:#FDEFAE;stroke-width:2;stroke-miterlimit:10;}
	.st58{fill:#FDEFAE;}
	.st59{fill:none;stroke:#CBC2F9;stroke-width:2;stroke-miterlimit:10;}
	.st60{fill:#CBC2F9;}
	.st61{fill:none;stroke:#F8D3E6;stroke-width:2;stroke-miterlimit:10;}
	.st62{fill:#F8D3E6;}
	.st63{fill:none;stroke:#FFFFFF;stroke-width:2;stroke-miterlimit:10;}
	.st64{fill:none;stroke:#FFFFFF;stroke-width:3;stroke-miterlimit:10;}
	.st65{fill:none;stroke:#C9F4F6;stroke-width:2;stroke-miterlimit:10;}
	.st66{fill:#C9F4F6;}
	.st67{clip-path:url(#SVGID_00000095327319740165588240000002954073575196526269_);}
	.st68{clip-path:url(#SVGID_00000095327319740165588240000002954073575196526269_);fill:#FFFFFF;}
	.st69{clip-path:url(#SVGID_00000173857477990255486230000010113237476107875263_);}
	.st70{clip-path:url(#SVGID_00000022541242769555356370000005354547609547638422_);}
	.st71{fill:#7FDEE2;stroke:#231F20;stroke-width:1.5;stroke-miterlimit:10;}
	.st72{fill:#CBC2F9;stroke:#231F20;stroke-width:1.5;stroke-miterlimit:10;}
	.st73{fill:#F7F5F5;}
	.st74{fill:none;stroke:#000000;stroke-width:0.25;stroke-miterlimit:10;}
	.st75{fill:none;stroke:#E6E7E8;stroke-width:5;stroke-linecap:round;stroke-linejoin:round;stroke-miterlimit:10;}
	.st76{fill:#C9F4F6;stroke:#231F20;stroke-miterlimit:10;}
	.st77{fill:#C5B6F7;}
	.st78{fill:none;stroke:#000000;stroke-width:0.5;stroke-miterlimit:10;}
	.st79{fill:none;stroke:#A7A9AC;stroke-width:3;stroke-linecap:round;stroke-linejoin:round;stroke-miterlimit:10;}
	.st80{fill:#FFFFFF;stroke:#1D1D1B;stroke-miterlimit:10;}
	.st81{fill:none;stroke:#1D1D1B;stroke-linecap:round;stroke-linejoin:round;stroke-miterlimit:10;}
	.st82{clip-path:url(#SVGID_00000035509665010410870480000007870527827828545460_);fill:none;}
	.st83{clip-path:url(#SVGID_00000035509665010410870480000007870527827828545460_);fill:#231F20;}
	.st84{clip-path:url(#SVGID_00000034778283414939288120000008400870637464360073_);fill:#231F20;}
	.st85{clip-path:url(#SVGID_00000111884691321441776030000013329071626064021946_);fill:#231F20;}
</style>
<g>
	<g>
		<g>
			<path d="M6.1,29.7c-3.1,0-5.6,2.5-5.6,5.6s2.5,5.6,5.6,5.6s5.6-2.5,5.6-5.6S9.2,29.7,6.1,29.7z"/>
			<rect x="0.5" y="0.6" width="84.5" height="9.4"/>
			<rect x="0.5" y="15.6" width="84.5" height="9.4"/>
		</g>
		<g>
			<path d="M43.1,42h-1.7v-1.9h1.7v-0.6c0-1.2,0.3-2.1,1-2.7c0.6-0.6,1.5-1,2.7-1c0.8,0,1.5,0.1,2.1,0.3l-0.4,1.8
				c-0.4-0.1-0.9-0.2-1.3-0.2c-0.5,0-0.9,0.1-1.2,0.4c-0.3,0.3-0.4,0.7-0.4,1.3v0.7h2.7V42h-2.7v9.3h-2.5V42z"/>
			<path d="M52.3,40.1v7.1c0,0.9,0.2,1.6,0.5,1.9c0.3,0.3,0.8,0.5,1.4,0.5c0.3,0,0.7-0.1,1-0.2c0.4-0.1,0.7-0.3,0.9-0.6
				c0.3-0.2,0.5-0.5,0.7-0.9c0.2-0.3,0.3-0.7,0.3-1.2v-6.7h2.5v11.2h-2.4v-1.6c-0.5,0.7-1.1,1.2-1.7,1.5c-0.6,0.3-1.3,0.5-1.9,0.5
				c-1.3,0-2.2-0.3-2.8-1c-0.6-0.7-0.9-1.7-0.9-3.1v-7.4H52.3z"/>
			<path d="M64.6,40.1v1.6c0.5-0.7,1.1-1.2,1.7-1.5c0.6-0.3,1.3-0.5,2-0.5c2.5,0,3.8,1.4,3.8,4.1v7.4h-2.5v-7c0-0.9-0.2-1.5-0.5-1.9
				c-0.3-0.4-0.8-0.6-1.5-0.6c-0.4,0-0.8,0.1-1.2,0.2c-0.4,0.2-0.7,0.4-0.9,0.6c-0.3,0.3-0.5,0.6-0.6,0.9c-0.2,0.3-0.2,0.7-0.2,1.1
				v6.7h-2.4V40.1H64.6z"/>
			<path d="M82.6,49.7c-0.5,0.6-1,1.1-1.6,1.4c-0.6,0.3-1.3,0.5-2,0.5c-0.8,0-1.5-0.1-2.1-0.4c-0.6-0.3-1.1-0.7-1.5-1.2
				c-0.4-0.5-0.7-1.2-0.9-1.9c-0.2-0.7-0.3-1.5-0.3-2.4c0-0.8,0.1-1.6,0.3-2.3c0.2-0.7,0.5-1.3,0.9-1.9c0.4-0.5,0.9-0.9,1.4-1.3
				c0.6-0.3,1.2-0.5,2-0.5c0.1,0,0.3,0,0.4,0c0.1,0,0.3,0,0.5,0c0.5,0.1,1,0.2,1.5,0.4c0.5,0.2,0.9,0.6,1.3,1.1v-5.4H85v15.4h-2.4
				V49.7z M82.5,45.4c0-0.7-0.1-1.3-0.2-1.8c-0.2-0.5-0.4-0.9-0.6-1.1c-0.3-0.3-0.6-0.5-0.9-0.6c-0.4-0.1-0.7-0.2-1.1-0.2
				c-0.9,0-1.6,0.3-2.1,1s-0.7,1.6-0.7,3c0,0.7,0.1,1.3,0.2,1.8c0.1,0.5,0.3,0.9,0.6,1.2c0.3,0.3,0.5,0.5,0.9,0.7
				c0.3,0.1,0.7,0.2,1.1,0.2c0.9,0,1.6-0.3,2.2-0.9c0.6-0.6,0.8-1.5,0.8-2.7V45.4z"/>
			<path d="M94.5,49.8c-0.4,0.5-0.9,0.9-1.5,1.3c-0.6,0.3-1.3,0.5-2.2,0.5c-0.5,0-1-0.1-1.5-0.2c-0.5-0.1-0.9-0.3-1.2-0.6
				c-0.3-0.3-0.6-0.6-0.8-1c-0.2-0.4-0.3-0.9-0.3-1.5c0-0.8,0.2-1.4,0.5-1.9c0.3-0.5,0.8-0.9,1.3-1.1c0.6-0.3,1.2-0.5,1.9-0.6
				c0.7-0.1,1.4-0.2,2.1-0.2l1.7-0.1v-0.5c0-0.8-0.2-1.4-0.6-1.8c-0.4-0.3-0.9-0.5-1.6-0.5c-0.8,0-1.3,0.1-1.7,0.4
				c-0.4,0.3-0.6,0.6-0.7,1.1l-2.2-0.2c0.2-1.1,0.7-1.9,1.5-2.4c0.8-0.5,1.9-0.8,3.3-0.8c0.9,0,1.6,0.1,2.2,0.3
				c0.6,0.2,1,0.5,1.4,0.9c0.3,0.4,0.6,0.9,0.7,1.4c0.1,0.6,0.2,1.2,0.2,1.8v7h-2.4V49.8z M92.8,46c-0.7,0-1.3,0.1-1.8,0.2
				c-0.5,0.1-0.8,0.3-1,0.4c-0.2,0.2-0.4,0.4-0.5,0.6c-0.1,0.2-0.1,0.5-0.1,0.8c0,0.5,0.2,0.9,0.5,1.1c0.3,0.3,0.8,0.4,1.4,0.4
				c1.1,0,1.9-0.3,2.4-0.8c0.5-0.5,0.8-1.3,0.8-2.2V46L92.8,46z"/>
			<path d="M101.7,40.1v1.7c0.4-0.6,0.9-1,1.4-1.4c0.5-0.3,1.1-0.5,1.7-0.5c0.2,0,0.4,0,0.6,0c0.2,0,0.3,0,0.5,0.1l-0.3,2.2
				c-0.2,0-0.3-0.1-0.5-0.1c-0.2,0-0.4,0-0.6,0c-0.5,0-0.9,0.1-1.2,0.2c-0.3,0.2-0.6,0.3-0.9,0.6c-0.2,0.2-0.4,0.5-0.5,0.8
				c-0.1,0.3-0.2,0.6-0.2,0.9v6.6h-2.4V40.1H101.7z"/>
		</g>
	</g>
</g>
</svg>
